# xmcd
#
# Track frame offsets: 
#        150
#        6595
#        18259
#        34589
#        51038
#        68384
#        91797
#        132249
#        147551
#        168395
#        186192
#        204801
#        229142
#        246225
#        266705
#        278660
#        295039
#        309822
#        324647
#
# Disc length: 4431 seconds
#
# Revision: 1
# Processed by: cddbd v1.5.2PL0 Copyright (c) Steve Scherf et al.
# Submitted via: ExactAudioCopy v0.99pb5
#
DISCID=03114d13
DTITLE=Loudblast - Loud, Live and Heavy
DYEAR=2009
DGENRE=Metal
TTITLE0=Pandemonium Prelude (Live 2005)
TTITLE1=Man's Own (Live 2005)
TTITLE2=Flesh (Live 2005)
TTITLE3=The Horror Within (Live 2005)
TTITLE4=Carpe Diem (Live 2005)
TTITLE5=Cross The Threshold (Live 2005)
TTITLE6=No Tears To Share ~ Mandatory Suicide (Live 2005)
TTITLE7=Shaped Images Of Disincarnate Spririts (Live 2005)
TTITLE8=Black Death (Live 2005)
TTITLE9=The Descents (Live 2005)
TTITLE10=The Serpent's Circle (Live 2005)
TTITLE11=Taste Me (Live 1999)
TTITLE12=Pleasure Focus (Live 1999)
TTITLE13=Steering For Paradise (Live 1999)
TTITLE14=Subject To Spirit (Live 1999)
TTITLE15=Presumption (Live 1999)
TTITLE16=Wrapped In Roses (Live 1999)
TTITLE17=Fire And Ice (Live 1999)
TTITLE18=Sinking (Live 1999)
EXTD=
EXTT0=
EXTT1=
EXTT2=
EXTT3=
EXTT4=
EXTT5=
EXTT6=
EXTT7=
EXTT8=
EXTT9=
EXTT10=
EXTT11=
EXTT12=
EXTT13=
EXTT14=
EXTT15=
EXTT16=
EXTT17=
EXTT18=
PLAYORDER=
